<?xml version="1.0" encoding="utf-8"?>
<!-- Generator: Adobe Illustrator 21.0.2, SVG Export Plug-In . SVG Version: 6.00 Build 0)  -->
<svg version="1.1" xmlns="http://www.w3.org/2000/svg" xmlns:xlink="http://www.w3.org/1999/xlink" x="0px" y="0px"
	 viewBox="0 0 500 500" style="enable-background:new 0 0 500 500;" xml:space="preserve">
<style type="text/css">
	.st0{display:none;}
	.st1{display:inline;fill:url(#SVGID_1_);}
	.st2{opacity:0.1;fill:#818C96;enable-background:new    ;}
	.st3{fill:#E5E5E5;}
	.st4{fill:#FFFFFF;}
	.st5{fill:#D1E3E8;}
	.st6{fill:#90AAAF;}
	.st7{fill:#8FBBC1;}
	.st8{fill:none;stroke:#DFE4E5;stroke-width:8;stroke-linecap:round;stroke-linejoin:round;stroke-miterlimit:10;}
	.st9{fill:#D3E8EA;}
	.st10{fill:#C6C6C6;}
	.st11{fill:#D8D8D8;}
	.st12{fill:#F2F2F2;}
	.st13{fill:#96A5A8;}
	.st14{fill:#BAA5F2;}
	.st15{fill:#D9F0F4;}
	.st16{fill:#FFF4E9;}
	.st17{fill:#E6EFEF;}
	.st18{fill:#D8491D;}
	.st19{fill:#4817CE;}
	.st20{fill:#F05A25;}
	.st21{fill:#6123EA;}
	.st22{fill:#CCCCCC;}
	.st23{fill:#F8B7B0;}
	.st24{fill:#1C1E38;}
	.st25{fill:#F6931E;}
	.st26{fill:#C2CECE;}
	.st27{fill:#818C96;}
	.st28{fill:#99BCC1;}
	.st29{fill:#FAFEFF;}
	.st30{fill:#D8EDEF;}
</style>
<g id="Layer_2" class="st0">
	<linearGradient id="SVGID_1_" gradientUnits="userSpaceOnUse" x1="26.795" y1="473.205" x2="364.9564" y2="135.0436">
		<stop  offset="0" style="stop-color:#0000FF"/>
		<stop  offset="1" style="stop-color:#FF00FF"/>
	</linearGradient>
	<rect class="st1" width="500" height="500"/>
</g>
<g id="Layer_1">
	<g>
		<g>
			<path class="st2" d="M6,348.5c0,0.8,0.1,1.6,0.3,2.4c0.5,1.8,1.6,3.4,3.3,4.7c0.2,0.1,0.5,0.3,0.7,0.5l154.4,89.1
				c2.6,1.6,5.9,1.6,8.6,0l268.9-155.2c2-1.3,3.4-3.1,4-5.1c1-3.5-0.3-7.7-4-9.9l-154.4-89.1c-2.7-1.6-6-1.6-8.6,0L10.2,341
				c-1.6,0.9-2.6,2.2-3.4,3.5C6.2,345.8,6,347.2,6,348.5z"/>
			<path class="st3" d="M7.2,210.5h2.5v1.7c0.2-0.1,0.5-0.3,0.7-0.5l268.4-155c2.6-1.5,5.9-1.5,8.6,0l154.2,89
				c1,0.6,1.8,1.4,2.5,2.2h2.5v0.6v9.3v0.1c0,2.8-1.5,5.7-4.3,7.3l-268.8,155c-2.7,1.6-6,1.6-8.6,0l-154.4-89
				c-1-0.6-1.9-1.4-2.6-2.3c-1.1-1.5-1.7-3.4-1.7-5.2v-9.3C6.2,213,6.6,211.7,7.2,210.5z"/>
			<path class="st4" d="M6,213.9c0,0.8,0.1,1.6,0.3,2.4c0.5,1.8,1.6,3.4,3.3,4.7c0.2,0.1,0.5,0.3,0.7,0.5l154.4,89.1
				c2.6,1.6,5.9,1.6,8.6,0l268.9-155.2c2-1.3,3.4-3.1,4-5.1c1-3.5-0.3-7.7-4-9.9l-154.5-89c-2.7-1.6-6-1.6-8.6,0L10.2,206.5
				c-1.6,0.9-2.6,2.2-3.4,3.5C6.2,211.3,6,212.7,6,213.9z"/>
		</g>
		<g>
			<path class="st5" d="M214.2,207.2l45.6,26.4c1.3,0.8,1.3,2.6,0,3.3l-43.7,25.3c-3.1,1.8-6.9,1.8-10,0l-43.7-25.3
				c-1.3-0.8-1.3-2.6,0-3.3l45.6-26.4C210,206.2,212.3,206.2,214.2,207.2z"/>
			<path class="st6" d="M188.3,231c-1.3,6.3,6,12.7,16.2,14.6c10.1,1.8,19.3-1.7,20.6-8c1.3-6.3-6-12.7-16.2-14.6
				C198.6,221.1,189.4,224.7,188.3,231z"/>
			<path class="st7" d="M190.1,228c-1.3,6.3,5.6,12.6,15.2,14.3c9.7,1.7,18.4-1.9,19.7-8.2c1.3-6.3-5.6-12.6-15.2-14.3
				C200.2,218.2,191.3,221.8,190.1,228z"/>
		</g>
		<path class="st8" d="M385.6,351.6"/>
		<g>
			<ellipse class="st2" cx="283.8" cy="82.5" rx="12.5" ry="7.4"/>
			<g>
				<g>
					<path class="st4" d="M270.5,74.3c0,7.2,5.8,12.9,12.9,12.9c1.4,0,2.7-0.2,4-0.6c4-1.3,7.1-4.4,8.3-8.3c0.5-1.3,0.6-2.6,0.6-4
						c0-7.2-5.8-12.9-12.9-12.9c-0.8,0-1.6,0.1-2.3,0.2c-5.3,0.9-9.4,5.1-10.5,10.5C270.5,72.7,270.5,73.5,270.5,74.3z"/>
					<path class="st9" d="M283.4,87.9c-7.5,0-13.5-6.1-13.5-13.5c0-0.8,0.1-1.6,0.2-2.4c1-5.6,5.3-10,10.9-10.9
						c0.8-0.1,1.6-0.2,2.4-0.2c7.5,0,13.5,6.1,13.5,13.5c0,1.5-0.2,2.8-0.7,4.2c-1.4,4.2-4.6,7.4-8.8,8.8
						C286.2,87.6,284.8,87.9,283.4,87.9z M283.4,62c-0.7,0-1.5,0.1-2.2,0.2c-5,0.9-9,4.9-9.9,9.9c-0.1,0.7-0.2,1.5-0.2,2.2
						c0,6.7,5.5,12.2,12.2,12.2c1.3,0,2.5-0.2,3.8-0.6c3.8-1.3,6.7-4.1,7.9-7.9c0.3-1.3,0.6-2.5,0.6-3.8
						C295.6,67.5,290.1,62,283.4,62z"/>
				</g>
				<path class="st9" d="M282.9,87.9c-0.2,0-0.5-0.1-0.6-0.3c-0.2-0.3-0.1-0.8,0.2-0.9c2.8-1.7,4.6-4.1,4.8-6.8
					c0.2-2.3-0.7-4.6-2.4-6.1c-2.4-2.2-5.2-3.1-8-2.6c-2.6,0.5-4.8,2.2-5.9,4.6c-0.2,0.3-0.6,0.5-0.9,0.3c-0.3-0.1-0.5-0.6-0.3-0.9
					c1.4-2.8,4-4.8,6.9-5.3c3.2-0.6,6.4,0.5,9.1,3c2,1.9,3.2,4.6,2.8,7.4c-0.3,3.2-2.3,5.9-5.5,7.9
					C283.3,87.9,283.1,87.9,282.9,87.9z"/>
				<path class="st9" d="M295.6,74.7c-1.9,0-4.7-1.8-6.8-3.9c-2.6-2.6-3.1-4.8-3-6.3c0.1-1.4,0.7-2.5,1.3-3c0.3-0.2,0.7-0.2,0.9,0.1
					c0.2,0.3,0.2,0.7-0.1,0.9c-0.1,0.1-0.7,0.8-0.7,1.9c-0.1,1.1,0.3,3.1,2.5,5.2c2.4,2.4,5.1,3.9,6.3,3.4c0.3-0.1,0.8,0,0.9,0.3
					c0.1,0.3,0,0.8-0.3,0.9C296.3,74.7,295.9,74.7,295.6,74.7z"/>
			</g>
		</g>
		<g>
			<polygon class="st10" points="286.9,163.5 357.1,204 310.4,231.1 240.2,190.6 			"/>
			<polygon class="st11" points="286.9,162.6 357.1,203.1 310.4,230.1 240.2,189.6 			"/>
			<polygon class="st12" points="286.9,161.6 357.1,202.1 310.4,229.2 240.2,188.7 			"/>
			<g>
				<path class="st13" d="M309,229.6c0.3,0,0.8-0.1,1-0.5c0.2-0.2,0.5-0.7,0.5-1c0-0.2,0-0.5-0.1-0.6c0-0.1-0.1-0.3-0.2-0.5
					c-0.6-0.6-1.5-0.6-2,0c-0.1,0.1-0.2,0.3-0.3,0.5c-0.1,0.2-0.1,0.3-0.1,0.6c0,0.3,0.1,0.8,0.5,1
					C308.3,229.4,308.7,229.6,309,229.6z M309,227.7c0.1,0,0.2,0,0.3,0.1l0.1,0.1c0,0.1,0,0.1,0,0.2c0,0.1,0,0.2-0.1,0.3
					c-0.2,0.2-0.5,0.2-0.7,0c-0.1-0.1-0.1-0.2-0.1-0.3c0,0,0-0.1,0-0.2c0-0.1,0.1-0.1,0.1-0.2C308.8,227.7,308.9,227.7,309,227.7z"
					/>
				<path class="st13" d="M301.4,225.2c0.6,0,1-0.2,1.3-0.7c0.2-0.3,0.2-0.7,0.1-1.1c-0.1-0.3-0.3-0.7-0.7-0.9
					c-0.7-0.5-1.6-0.1-1.9,0.6c-0.2,0.3-0.2,0.7-0.1,1.1c0.1,0.3,0.3,0.7,0.7,0.9C300.9,225.2,301.1,225.2,301.4,225.2z
					 M301.5,223.3c0.1,0,0.1,0,0.2,0.1c0.2,0.1,0.3,0.5,0.2,0.7l0,0c-0.1,0.2-0.5,0.3-0.6,0.2s-0.2-0.1-0.2-0.3c0-0.1,0-0.2,0-0.3
					C301.1,223.4,301.3,223.3,301.5,223.3z M293.9,220.8c0.6,0,1-0.2,1.3-0.7c0.2-0.3,0.2-0.7,0.1-1.1c-0.1-0.3-0.3-0.7-0.7-0.9
					c-0.7-0.5-1.6-0.1-1.9,0.6c-0.2,0.3-0.2,0.7-0.1,1.1c0.1,0.3,0.3,0.7,0.7,0.9C293.3,220.8,293.5,220.8,293.9,220.8z
					 M293.9,218.9c0.1,0,0.1,0,0.2,0.1c0.1,0.1,0.2,0.1,0.2,0.3c0,0.1,0,0.2,0,0.3l0,0c-0.1,0.2-0.5,0.2-0.7,0.1
					c-0.2-0.1-0.3-0.5-0.1-0.7C293.5,218.9,293.6,218.9,293.9,218.9z M286.2,216.4c0.6,0,1-0.2,1.3-0.7l0,0c0.2-0.3,0.2-0.7,0.1-1.1
					c-0.1-0.3-0.3-0.7-0.7-0.9c-0.3-0.2-0.7-0.2-1.1-0.1c-0.3,0.1-0.7,0.3-0.9,0.7c-0.2,0.3-0.2,0.7-0.1,1.1
					c0.1,0.3,0.3,0.7,0.7,0.9C285.7,216.3,285.9,216.4,286.2,216.4z M286.6,215.2c-0.1,0.2-0.5,0.3-0.7,0.1
					c-0.1-0.1-0.2-0.1-0.2-0.2c0-0.1,0-0.2,0-0.3c0.1-0.1,0.1-0.2,0.2-0.2s0.2,0,0.3,0c0.1,0.1,0.2,0.1,0.2,0.3
					C286.7,215,286.7,215.1,286.6,215.2z M278.6,212c0.6,0,1-0.2,1.3-0.7c0.2-0.3,0.2-0.7,0.1-1.1c-0.1-0.3-0.3-0.7-0.7-0.9
					c-0.7-0.3-1.6-0.1-1.9,0.6c-0.5,0.7-0.1,1.6,0.6,1.9C278,212,278.3,212,278.6,212z M278.6,210.1c0.1,0,0.1,0,0.2,0.1
					c0.1,0.1,0.2,0.1,0.2,0.2c0,0.1,0,0.2,0,0.3l0,0c-0.1,0.2-0.5,0.3-0.7,0.1c-0.2-0.1-0.3-0.5-0.1-0.7
					C278.3,210.2,278.4,210.1,278.6,210.1z M271,207.7c0.6,0,1-0.2,1.3-0.7c0.5-0.7,0.1-1.6-0.6-1.9c-0.7-0.3-1.6-0.1-1.9,0.6
					s-0.1,1.6,0.6,1.9C270.4,207.6,270.8,207.7,271,207.7z M271,205.7c0.1,0,0.1,0,0.2,0.1c0.2,0.1,0.3,0.5,0.1,0.7l0,0
					c-0.1,0.2-0.5,0.3-0.7,0.1c-0.2-0.1-0.3-0.5-0.1-0.7C270.7,205.7,270.8,205.7,271,205.7z M263.4,203.2c0.6,0,1-0.2,1.3-0.7l0,0
					c0.5-0.7,0.1-1.6-0.6-1.9c-0.3-0.2-0.7-0.2-1.1-0.1c-0.3,0.1-0.7,0.3-0.9,0.7c-0.2,0.3-0.2,0.7-0.1,1.1c0.1,0.3,0.3,0.7,0.7,0.9
					C262.9,203.1,263.1,203.2,263.4,203.2z M263.8,202c-0.1,0.2-0.3,0.3-0.7,0.1c-0.1-0.1-0.2-0.1-0.2-0.2c0-0.1,0-0.2,0-0.3
					c0.1-0.1,0.1-0.2,0.2-0.2s0.2,0,0.3,0C263.8,201.5,263.9,201.8,263.8,202z M255.7,198.8c0.6,0,1-0.2,1.3-0.7
					c0.5-0.7,0.1-1.6-0.6-1.9c-0.7-0.3-1.6-0.1-1.9,0.6c-0.2,0.3-0.2,0.7-0.1,1.1c0.1,0.3,0.3,0.7,0.7,0.9
					C255.3,198.8,255.5,198.8,255.7,198.8z M255.7,196.9c0.1,0,0.1,0,0.2,0.1c0.2,0.1,0.3,0.5,0.1,0.7l0,0c-0.1,0.2-0.5,0.3-0.6,0.1
					c-0.1-0.1-0.2-0.1-0.2-0.3c0-0.1,0-0.2,0-0.3C255.4,197,255.6,196.9,255.7,196.9z M248.1,194.5c0.5,0,1-0.2,1.3-0.7l0,0
					c0.3-0.7,0.1-1.6-0.6-1.9c-0.3-0.2-0.7-0.2-1.1-0.1c-0.3,0.1-0.7,0.3-0.9,0.7c-0.3,0.7-0.1,1.6,0.6,1.9
					C247.7,194.4,247.9,194.5,248.1,194.5z M248.6,193.2c-0.1,0.2-0.5,0.3-0.7,0.2c-0.2-0.1-0.3-0.5-0.1-0.7
					c0.1-0.1,0.1-0.2,0.2-0.2s0.2,0,0.3,0C248.6,192.8,248.7,193,248.6,193.2z"/>
				<path class="st13" d="M240.5,190c0.2,0,0.3,0,0.6-0.1c0.2-0.1,0.3-0.2,0.5-0.3c0.1-0.1,0.2-0.3,0.3-0.5c0.1-0.1,0.1-0.3,0.1-0.6
					s0-0.3-0.1-0.6c-0.1-0.1-0.1-0.3-0.3-0.5c-0.1-0.1-0.3-0.2-0.5-0.3c-0.3-0.1-0.8-0.1-1.1,0c-0.2,0.1-0.3,0.2-0.5,0.3
					c-0.1,0.1-0.2,0.3-0.3,0.5c-0.1,0.2-0.1,0.3-0.1,0.6s0,0.3,0.1,0.6c0.1,0.1,0.1,0.3,0.3,0.5c0.1,0.1,0.3,0.2,0.5,0.3
					C240.2,190,240.3,190,240.5,190z M240.5,188.1c0.1,0,0.1,0,0.2,0c0,0,0.1,0,0.1,0.1l0.1,0.1c0,0,0,0.1,0,0.2c0,0.1,0,0.1,0,0.2
					c0,0,0,0.1-0.1,0.2l-0.1,0.1c-0.1,0-0.2,0-0.3,0c0,0-0.1,0-0.1-0.1c-0.1-0.1-0.1-0.1-0.1-0.1c0-0.1,0-0.1,0-0.2c0,0,0-0.1,0-0.2
					c0-0.1,0.1-0.1,0.1-0.1l0.1-0.1C240.4,188.1,240.5,188.1,240.5,188.1z"/>
			</g>
		</g>
		<g>
			<polygon class="st14" points="148,225.4 91.8,257.3 41.2,191.5 93,168.8 			"/>
			<polygon class="st15" points="141.5,225.2 84.2,255.5 35.8,188.7 88.4,167.5 			"/>
			<polygon class="st16" points="131.5,235.4 68.9,257.5 34,187.3 86.7,171.4 			"/>
		</g>
		<g>
			<g>
				<path class="st2" d="M274.6,408.5c0,0.8,0.2,1.7,0.7,2.4c0.3,0.5,0.8,0.9,1.4,1.4l13,7.5l83.6,48.2c6.8,4,15.2,4,22.1,0
					l85.3-49.3l11.3-6.5c0.6-0.3,1-0.8,1.4-1.4c0.5-0.7,0.7-1.6,0.7-2.4c0-1.5-0.7-2.8-2.2-3.8l-11.3-6.5l-89.7-51.8
					c-4.2-2.4-9.3-2.4-13.5,0l-88,50.7l-13,7.5C275.3,405.7,274.6,407.1,274.6,408.5z"/>
				<path class="st17" d="M467.6,412c1.6,0,3.2-0.8,4.1-2.3c1.3-2.3,0.6-5.1-1.7-6.4l-74.5-43c-4-2.3-5.8-11.2-5.8-11.2v-52.7
					c0-4.2,1.8-8.3,5.2-10.7c4.2-3.1,9.7-3.3,14.1-0.8l29.9,17.3c6.7,3.9,15.1,4.3,22,0.7c7.4-4,11.7-11.3,11.7-19.6v-49.6
					c0-1.8-1-3.6-2.7-4.4c-3.8-1.7-7.5,1-7.5,4.6v49c0,4.2-1.8,8.3-5.2,10.7c-4.2,3.1-9.7,3.3-14.1,0.8L412.6,277
					c-7.2-4.1-15.8-4-22.9,0.3c-6.6,4.1-10.5,11.6-10.5,19.3v52.5c0,0,4.6,15.2,11.4,19.2l74.4,43C466,411.9,466.8,412,467.6,412z"
					/>
				<path class="st18" d="M355.5,355.5c-0.6,9.8,1.5,9.1,0,14.5c-1.1,4.2-8.2,8.3-20.5,4.3c-12.3-4.1-23.6-11.7-27.9-19.6
					c-4.3-7.9,11.2-11.4,24.1-5.9C340.5,352.5,355.5,355.5,355.5,355.5"/>
				<path class="st19" d="M343.2,271.9c2.6,17.4,16.2,81.6,12.4,90.7c-3.8,9.1-15.7,8.9-24.2-4.2c-8.5-13-24.1-85.1-24.3-98.2
					C306.9,248.5,339.8,249,343.2,271.9z"/>
				<path class="st19" d="M361.1,299.2c-16.7-10.2-46.4-25.8-52.2-36.9c-5.8-11,2.2-26.3,18.5-25.9c16.4,0.2,51,27.4,63.4,29.1
					C403.2,267.1,383.2,312.5,361.1,299.2z"/>
				<path class="st20" d="M322.1,369c1.3,9.7,2.2,13.2,2.2,16c0,2.8-6,7.7-18.9,6c-12.9-1.7-31.1-8.3-36.8-15.2s16.3-14.1,28.4-10.8
					C306.7,367.8,322.1,369,322.1,369"/>
				<path class="st21" d="M309.7,284.5c2.6,17.4,16.2,81.6,12.4,90.7c-3.8,9.1-15.7,8.9-24.2-4.2c-8.5-13-24.1-85.1-24.3-98.2
					C273.3,261.2,306.2,261.6,309.7,284.5z"/>
				<path class="st22" d="M305.8,308.5l8.8-5.1v3.3l64.4-37.2c3.1-1.8,6.8-1.8,9.9,0l65.7,37.9v-3.8l8.6,5c1.1,0.7,1.6,1.7,1.6,2.8
					v3.3c0,1-0.6,2-1.6,2.7l-8.2,4.8l-62.4,36c-5,2.8-11.2,2.8-16.2,0l-61.1-35.3l-9.4-5.5c-1-0.6-1.6-1.7-1.6-2.7V311
					C304.3,310,304.9,309.1,305.8,308.5z"/>
				<path class="st4" d="M304.3,311.2c0,0.6,0.2,1.3,0.6,1.7c0.2,0.3,0.6,0.7,1,0.9l9.4,5.5l61,35.3c5,2.8,11.2,2.8,16.2,0l62.2-36
					l8.2-4.8c0.5-0.2,0.8-0.6,1-0.9c0.3-0.6,0.6-1.1,0.6-1.7c0-1-0.6-2-1.6-2.7l-8.2-4.8l-65.4-37.8c-3.1-1.7-6.8-1.7-9.9,0
					L315.3,303l-9.4,5.5C304.8,309.2,304.3,310.2,304.3,311.2z"/>
				<g>
					<path class="st23" d="M384.9,181.4c-13.7,5.2-24.5-0.3-28.1-3.2c-3.6-2.8,4.6-8.5,7.1-12.9c1-1.8,1-4.4,0.3-7.5
						c-0.9-4.2-4-17.6-6.6-23.3l28.1-3.4c0,0,2.4,14.2,3.6,19.5c0.2,0.9,0.6,1.7,0.9,2.4c1.8,3,5.6,3.6,11.9,6.6
						C410,163,398.7,176.3,384.9,181.4z"/>
					<g>
						<g>
							<path class="st23" d="M404.6,112.9c-3,16.7-3.4,22.4-11.7,28.9s-26.6,8.2-33.1,7.9c-8.1-0.5-10.4-9.7-11.9-17
								c-1.6-7.5-3.3-26.6,0.6-44.9c1.9-9.3,15-19.9,27.6-19.2C388.6,69.3,411.7,72.1,404.6,112.9z"/>
						</g>
						<path class="st24" d="M354.6,106.3c1.3,14.7,5.6,17.2,9.8,26.4c3.9,8.5,14.2,14.9,21.7,12.7c13.4-3.9,14.2-8.8,22.1-23.3
							c3.3-6,8.2-17.1,6.3-33.1c-1-8.2-13.2-18.4-26.1-18.8C375.3,69.9,351.5,70.3,354.6,106.3z"/>
						<path class="st23" d="M349.7,124.6c0.6,5.5,4.7,9.7,9.1,9.4c4.4-0.3,7.6-5,7.1-10.5c-0.6-5.5-4.7-9.7-9.1-9.4
							C352.3,114.5,349.2,119.2,349.7,124.6z"/>
						<path class="st24" d="M361.4,95.6c-8.8-4.9-19.6-8.9-14.1-16.2c5.5-7.3,22.9-17.5,46.2-10.4C416.9,76.3,361.4,95.6,361.4,95.6
							z"/>
					</g>
				</g>
				<path class="st23" d="M332.8,160.7c-10.2-0.3-11.7-4.1-20.1-5.5c-8.3-1.4-11.8-1.4-17.2,2.3s-9,13.7,5.5,13.4
					c14.5-0.2,16,2.6,24.6,3.6C334.6,175.7,332.8,160.7,332.8,160.7z"/>
				<path class="st24" d="M293.5,175.3c-0.2,0-0.6-0.1-0.8-0.3c-0.3-0.5-0.3-1,0.1-1.5l21.3-19.5c0.5-0.3,1-0.3,1.5,0.1
					c0.3,0.5,0.3,1-0.1,1.5L294.2,175C294.1,175.1,293.7,175.3,293.5,175.3z"/>
				<path class="st23" d="M334.7,170.2c-10.2,0.2-12.2-1.3-20.7-1.6c-8.4-0.2-11.9-0.1-16.7,1.6c-4.8,1.7-7.2,6.1,7.2,5.5
					c14.3-0.7,16.3,0.5,24.8,0.6C338.5,176.5,334.7,170.2,334.7,170.2z"/>
				<path class="st20" d="M398.8,208.8c-19.7-1.4-68.7-27-77.3-32.4c-1.1-0.7-1.8-1.9-1.8-3.2c-0.6-8.5,4.1-15.4,6.4-15.8
					c2.5-0.5,62,30.7,89.3,23.9"/>
				<path class="st21" d="M420.2,277.4c3.1,14.5,5.1,27.3-1.4,34.4c-6.5,7.2-25.9,19.1-54.2,14.7c-28.2-4.4-48-13-44-20.9
					c4-7.9,1-28.2,31.6-25.5C382.8,282.9,420.2,277.4,420.2,277.4z"/>
				<path class="st21" d="M327.4,315.8c-16.7-10.2-46.4-25.8-52.2-36.9c-5.8-11,2.2-26.3,18.5-25.9c16.4,0.2,51,27.4,63.4,29.1
					C369.6,283.7,349.5,329.1,327.4,315.8z"/>
				<path class="st25" d="M341.1,281.1c-0.1,7.7,1.6,19.1,17.2,22.6c17.5,3.9,35.5,1.5,48.4-5.3c15.7-8.4,14.9-12.7,11.7-28.1
					c-1.8-8.8-2.7-27-2.7-27c0-16.6,2.5-25.3,4.1-36.2c2.4-15.7,6.3-35.5-10-48.5c-4.3-3.5-13.1-5.9-17.1-5.2
					c-18.8,3.2-42.8,14.7-50.3,38.8c-0.8,2.6-1.4,5.3-1.8,8.2c-0.5,3.2-0.7,6.6-0.5,10.2c0.7,17.9,0.9,31.1,1.1,41.1
					c0,0.3,0,0.7,0,1C341.4,269,341.2,276.3,341.1,281.1z"/>
				<path class="st20" d="M340.1,210.6c0.7,17.9,0.9,31.1,1.1,41.1c8.4-11.3,15.9-23.1,20.8-32.4c11.4-21.4,10.1-36-6.4-34.2
					c-6,0.7-10.1,3.3-13.2,7.2c-0.8,2.6-1.4,5.3-1.8,8.2C340.2,203.7,339.9,207,340.1,210.6z"/>
				<path class="st4" d="M382.8,283.3V303c0,3.2,2.6,5.3,5.3,5.3l0,0c0.9,0,1.8-0.2,2.6-0.7l72.4-41.9c1.7-0.9,2.7-2.7,2.7-4.7
					v-19.7c0-1.6-0.7-3-1.7-3.9c-1.6-1.5-4.1-2-6.4-0.7l-72.4,41.9C383.9,279.6,382.8,281.4,382.8,283.3z"/>
				<path class="st22" d="M386.3,284.8v19.7c0,1.6,0.7,3,1.7,3.9l0,0c0.9,0,1.8-0.2,2.6-0.7l72.6-41.9c1.7-0.9,2.7-2.7,2.7-4.7
					v-19.7c0-1.6-0.7-3-1.7-3.9c-0.9,0-1.8,0.2-2.6,0.7L389,280.2C387.3,281.1,386.3,282.9,386.3,284.8z"/>
				<path class="st17" d="M382.3,459.4c1.6,0,3.2-0.9,4-2.4c1.1-2.2,0.2-4.9-1.9-6.1L311.8,409c-3.9-2.3-6.3-6.5-6.3-10.9v-55.9
					c0-4.2,1.8-8.3,5.2-10.7c4.2-3.1,9.7-3.3,14.1-0.8l30.4,17.5c7.2,4.1,15.8,4,22.9-0.3c6.6-4.1,10.5-11.6,10.5-19.3v-48.9
					c0-2.4-1.7-4.6-4.1-4.8c-2.7-0.2-5,1.9-5,4.6v49.4c0,4.2-1.8,8.3-5.2,10.7c-4.2,3.1-9.7,3.3-14.1,0.8l-30.4-17.5
					c-7.2-4.1-15.8-4-22.9,0.3c-6.6,4.1-10.5,11.6-10.5,19.3v55.8c0,7.7,4.2,14.9,10.8,18.8l72.7,42
					C380.7,459.1,381.5,459.4,382.3,459.4z"/>
			</g>
			<path class="st23" d="M235.9,224c-9.8-1.6-10.7-5.2-18.5-7.5c-7.9-2.3-11.2-2.6-16.6,0.2c-5.5,2.8-12.9,13.2,0.9,14.7
				s17.7,3.1,25.7,5C235.9,238.4,235.9,224,235.9,224z"/>
			<path class="st25" d="M375,195.2c-15.9,17.7-52.2,45.3-70.8,49.7c-19.2,4.6-73.6-5.6-83.4-8.2c-1.3-0.3-2.3-1.3-2.7-2.5
				c-3-8-0.6-15.8,1.5-17c2.3-1.3,68.3,11.2,92.4-3.4c16.8-10.2,17.9-10.8,30.6-26.6c10.2-12.7,18.8-27.2,35.6-24.7
				C394.9,165,390,178.3,375,195.2z"/>
		</g>
		<g>
			<path class="st26" d="M131.8,162.7h0.8v0.7c0.1-0.1,0.2-0.1,0.2-0.2L235.4,104c1-0.6,2.3-0.6,3.3,0l58.8,34
				c0.3,0.2,0.7,0.5,0.9,0.8h0.2v0.2v1.8l0,0c0,1.1-0.6,2.2-1.6,2.8L195,202.9c-1,0.6-2.3,0.6-3.3,0l-58.6-34
				c-0.5-0.2-0.7-0.6-1-0.9c-0.5-0.6-0.7-1.3-0.7-1.9v-1.8C131.4,163.6,131.6,163.2,131.8,162.7z"/>
			<path class="st17" d="M131.4,164c0,0.3,0,0.6,0.1,0.9c0.2,0.7,0.6,1.4,1.3,1.7c0.1,0.1,0.2,0.1,0.2,0.2l58.5,33.7
				c1,0.6,2.3,0.6,3.3,0l101.7-58.7c0.8-0.5,1.3-1.1,1.5-1.9c0.3-1.4-0.1-3-1.5-3.8L238,102.3c-1-0.6-2.3-0.6-3.3,0L133,161
				c-0.6,0.3-1,0.8-1.3,1.4C131.5,163,131.4,163.5,131.4,164z"/>
			<path class="st26" d="M220.2,162.9l12.1,6.9c0.6,0.3,1.3,0.3,1.7,0l17.1-9.8c1.1-0.7,1.1-2.4,0-3l-12.1-6.9
				c-0.6-0.3-1.3-0.3-1.7,0l-17.1,9.8C219.1,160.6,219.1,162.2,220.2,162.9z"/>
			<path class="st27" d="M261.5,125.5l-24.2-14c-0.7-0.3-1.4-0.3-2,0l-87.8,50.7c-1.4,0.8-1.4,2.7,0,3.5l24.2,14
				c0.7,0.3,1.4,0.3,2,0l87.8-50.7C262.9,128.3,262.9,126.3,261.5,125.5z"/>
			<path class="st28" d="M236.1,32.2v67.4c0,1.1-0.6,2.3-1.6,2.8L132.9,161c-2.2,1.3-4.9-0.3-4.9-2.8V90.9c0-1.1,0.6-2.3,1.6-2.8
				l101.6-58.6C233.4,28.1,236.1,29.7,236.1,32.2z"/>
			<path class="st29" d="M231.5,95.5V38c0-1-1.1-1.7-2-1.1l-93.3,53.9c-1.5,0.9-2.5,2.5-2.5,4.2v57.6c0,1,1.1,1.7,2,1.1l93.4-53.9
				C230.6,98.9,231.5,97.3,231.5,95.5z"/>
			<path class="st30" d="M145.9,140.6c-1.5,0-3.1-0.5-4.4-1.4c-2-1.5-3.3-4-3.3-6.5v-26.2c0-7.1,3.9-13.8,10-17.3l66.2-38.3
				c2.6-1.5,5.8-1.4,8.3,0.5c2,1.5,3.1,3.9,3.1,6.4v26.2c0,7.1-3.9,13.8-10,17.3l-66.2,38.2C148.6,140.2,147.2,140.6,145.9,140.6z
				 M218.4,51c-1.1,0-2.2,0.2-3.2,0.8l-66.6,38.5l0,0c-5.8,3.3-9.3,9.6-9.3,16.2v27.9c0,0.3,0.1,0.8,0.2,1.1c1.9,4,6,5,9.2,3.2
				l72.5-41.9c2.2-1.3,3.4-3.5,3.4-5.9V56.1c0-0.5-0.1-0.8-0.2-1.1C223.1,52.4,220.7,51,218.4,51z M148.7,89.9L148.7,89.9
				L148.7,89.9z"/>
		</g>
		<g>
			<g>
				<defs>
					<path id="SVGID_2_" d="M471.6,283.3V234c0-2.4-1.7-4.6-4.1-4.8c-2.7-0.2-5,1.9-5,4.6v3.3c-1.5-0.6-3.1-0.6-4.7,0.3l-41.2,23.8
						c-0.9-8.5-1.4-17.7-1.4-17.7c0-16.5,2.5-25.3,4.1-36.1c2.4-15.7,6.1-35.4-10-48.4c-4.3-3.5-13.1-5.8-17.1-5.2
						c-0.6,0.1-1.1,0.2-1.7,0.3c-0.2-0.3-0.6-0.7-0.8-1c-0.5-0.7-0.7-1.4-0.9-2.4c-0.3-1.4-0.7-3.4-1.1-5.6
						c11.5-3.8,12.5-8.9,19.9-22.6c3.3-6,8.2-17,6.1-33.1c-0.7-5.8-7.3-11.9-15.6-15.5c-0.6-1.4-2-3.3-5.2-4.3
						c-23.2-7.2-40.6,3-46.1,10.4c-2.5,3.4-1.6,6,1,8.3c-3.8,18.2-2.2,37.3-0.5,44.8c1.6,7.3,3.9,16.4,11.9,16.8c0.7,0,1.6,0,2.5,0
						c0.8,3.4,1.5,6.4,1.8,8.1c0.6,2.6,0.7,4.8,0,6.6c-0.8,0.5-1.5,1-2.2,1.5c-1.8,1.1-3.5,2.6-5.2,4.2l0,0
						c-16.5-6.4-29.6-12.7-30.7-12.5c-0.6,0.1-1.4,0.7-2.2,1.6c-2.8-1-5.1-2.4-8.5-3.3l0.2-0.2c0.5-0.3,0.5-1,0.1-1.5
						s-1-0.5-1.5-0.1l-1.4,1.3h-0.1c-8.3-1.4-11.8-1.4-17.1,2.3c-4.6,3.2-7.9,11,0.6,13l-3.2,3c-0.5,0.3-0.5,1-0.1,1.5
						c0.2,0.2,0.5,0.3,0.8,0.3c0.2,0,0.5-0.1,0.7-0.2l0.3-0.3c1.4,0.8,4.3,1.4,10,1.1c8.4-0.3,12.5-0.1,16.3,0.1
						c0.2,0.2,0.3,0.3,0.6,0.5c3,1.8,10.8,6.1,20.6,11c-12.3,15.2-13.5,16-30.2,26.1c-24,14.6-89.9,2.3-92.2,3.4l0,0
						c-0.7-0.2-1.4-0.5-2.2-0.7c-7.7-2.3-11-2.6-16.5,0.2c-5.5,2.8-12.9,13.2,0.9,14.7c7.7,0.8,12.3,1.7,16.3,2.6
						c0,0.1,0,0.1,0.1,0.1c0.5,1.3,1.5,2.2,2.7,2.5c9.8,2.6,64.1,12.7,83.3,8.2c2.4-0.6,5.1-1.6,8.1-2.8c-3.9,3.9-5.8,9.3-5.1,14.5
						c-5.1-2.2-9.7-3.6-13.3-3.6c-13.4-0.2-21.2,10-20.3,19.8v0.1c0.2,11.6,12.5,69.7,21.2,91.6c-12.4-1.9-31.4,4.8-26.1,11.3
						c4.4,5.5,16.6,10.6,27.9,13.4v8.2c0,0,4.3,15.2,11.3,19.2l74.4,43c0.7,0.5,1.5,0.7,2.3,0.7c1.6,0,3.2-0.8,4.1-2.3
						c1.3-2.3,0.6-5.1-1.7-6.4l-74.4-43c-4-2.3-5.7-11.2-5.7-11.2v-6.1c12.5,1.6,18.3-3.3,18.3-6c0-2.5-0.7-5.5-1.7-12.4
						c0.1-1.1,0.1-2.4,0.1-4c3.9,2.2,8,4.1,12.3,5.5c12.3,4.1,19.2-0.1,20.4-4.2c0.9-3.4,0.5-4.3,0.1-7.2v-0.1
						c0.9-2.2,0.8-7.4,0.1-14.5c2.5,1.5,5.2,2.4,8.1,2.7l12.5,7.2c1.9,1.1,4.1,1.8,6.4,2c1.9,3.3,4.7,6.3,8.2,8.2l74.2,42.9
						c0.7,0.5,1.5,0.6,2.3,0.6c1.6,0,3.2-0.8,4-2.3c1.3-2.3,0.6-5-1.7-6.4L396,360.4c-1-0.6-2-1.4-2.8-2.3l61.9-35.7l8.2-4.7
						c1-0.6,1.6-1.6,1.6-2.7v-3.6c0,0-0.8-2-1.8-2.7l-6.7-3.9c1.7-0.5,3.4-1.1,5-2.2C468.2,298.6,471.6,283.3,471.6,283.3z
						 M340.6,225.1c0.1,5.5,0.3,10.5,0.5,14.9c-5.1-2.3-9.8-3.6-13.5-3.8c-1.7,0-3.3,0.1-4.8,0.5
						C328.5,233.4,334.6,229.4,340.6,225.1z M317.5,328.9c1.3-0.1,2.4-0.1,3.6,0.1c1.8,6.8,3.6,13,5.5,18.1c-2.2-0.6-4.2-0.8-6.3-1
						C319.5,340.6,318.6,334.8,317.5,328.9z M462.5,283c0,4.2-1.8,8.3-5.2,10.7c-4.2,3.1-9.7,3.4-14.1,0.8l-14.5-8.3l33.9-19.6
						L462.5,283z"/>
				</defs>
				<clipPath id="SVGID_3_">
					<use xlink:href="#SVGID_2_"  style="overflow:visible;"/>
				</clipPath>
			</g>
		</g>
	</g>
</g>
</svg>
